<?xml version="1.0" encoding="UTF-8" standalone="no"?><!DOCTYPE svg PUBLIC "-//W3C//DTD SVG 1.1//EN" "http://www.w3.org/Graphics/SVG/1.1/DTD/svg11.dtd"><svg width="100%" height="100%" viewBox="0 0 529 86" version="1.1" xmlns="http://www.w3.org/2000/svg" xmlns:xlink="http://www.w3.org/1999/xlink" xml:space="preserve" xmlns:serif="http://www.serif.com/" style="fill-rule:evenodd;clip-rule:evenodd;stroke-linejoin:round;stroke-miterlimit:1.41421;"><g><path d="M0,55.385l0,-20.139l7.594,-7.595l27.882,0l0,7.105l-25.236,0l-2.891,2.891l0,15.337l2.891,2.891l25.236,0l0,7.105l-27.882,0l-7.594,-7.595Z" style="fill:#fff;fill-rule:nonzero;"/><path d="M75.214,55.875l0,-21.119l-21.707,0l0,21.119l21.707,0Zm-29.057,-28.224l36.406,0l0,35.329l-36.406,0l0,-35.329Z" style="fill:#fff;fill-rule:nonzero;"/><path d="M124.801,42.694l0,-5.586l-2.009,-2.107l-19.502,0l0,7.693l21.511,0Zm-28.763,-15.043l28.616,0l7.203,7.497l0,14.798l-9.751,0l13.132,13.034l-9.309,0l-12.936,-12.887l-9.703,0l0,12.887l-7.252,0l0,-35.329Z" style="fill:#fff;fill-rule:nonzero;"/><path d="M145.431,27.651l34.985,0l0,7.252l-27.391,0l0,6.958l20.924,0l0,6.909l-20.924,0l0,6.861l27.391,0l0,7.349l-34.985,0l0,-35.329Z" style="fill:#fff;fill-rule:nonzero;"/><path d="M193.167,27.651l39.886,0l7.35,7.546l0,27.783l-7.056,0l0,-25.284l-2.891,-2.793l-10.045,0l0,28.077l-7.105,0l0,-28.077l-13.034,0l0,28.077l-7.105,0l0,-35.329Z" style="fill:#fff;fill-rule:nonzero;"/><path d="M253.682,27.651l34.985,0l0,7.252l-27.39,0l0,6.958l20.921,0l0,6.909l-20.921,0l0,6.861l27.39,0l0,7.349l-34.985,0l0,-35.329Z" style="fill:#fff;fill-rule:nonzero;"/><path d="M328.259,55.875l2.89,-2.891l0,-15.337l-2.89,-2.891l-20.189,0l0,21.119l20.189,0Zm-27.538,-28.224l30.183,0l7.596,7.595l0,20.139l-7.596,7.595l-30.183,0l0,-35.329Z" style="fill:#fff;fill-rule:nonzero;"/><rect x="350.553" y="27.651" width="7.349" height="35.329" style="fill:#fff;fill-rule:nonzero;"/><path d="M400.533,42.351l0,-5.243l-2.304,-2.352l-19.747,0l0,7.595l22.051,0Zm-29.155,-14.7l28.665,0l7.595,7.595l0,27.734l-7.105,0l0,-13.573l-22.051,0l0,13.573l-7.104,0l0,-35.329Z" style="fill:#fff;fill-rule:nonzero;"/><path d="M503.64,32.921l-25.236,0l-2.891,2.891l0,15.337l2.891,2.891l25.236,0l0,7.105l-27.882,0l-7.595,-7.594l0,-20.14l7.595,-7.595l27.882,0l0,7.105Zm14.323,-17.351l0,8.201l-2.14,0l0,-7.668l-0.876,-0.846l-3.047,0l0,8.514l-2.154,0l0,-8.514l-3.952,0l0,8.514l-2.154,0l0,-10.714l11.953,0c-7.664,-7.48 -18.136,-12.096 -29.692,-12.096c-23.483,0 -42.519,19.037 -42.519,42.519c0,23.484 19.036,42.52 42.519,42.52c23.484,0 42.52,-19.036 42.52,-42.52c0,-10.684 -3.95,-20.44 -10.458,-27.91Z" style="fill:#fff;fill-rule:nonzero;"/></g></svg>