<?xml version="1.0" encoding="UTF-8" standalone="no"?><!DOCTYPE svg PUBLIC "-//W3C//DTD SVG 1.1//EN" "http://www.w3.org/Graphics/SVG/1.1/DTD/svg11.dtd"><svg width="100%" height="100%" viewBox="0 0 86 86" version="1.1" xmlns="http://www.w3.org/2000/svg" xmlns:xlink="http://www.w3.org/1999/xlink" xml:space="preserve" xmlns:serif="http://www.serif.com/" style="fill-rule:evenodd;clip-rule:evenodd;stroke-linejoin:round;stroke-miterlimit:1.41421;"><g><path d="M60.257,32.921l-25.235,0l-2.891,2.891l0,15.337l2.891,2.89l25.235,0l0,7.106l-27.881,0l-7.595,-7.595l0,-20.139l7.595,-7.595l27.881,0l0,7.105Zm14.324,-17.351l0,8.201l-2.14,0l0,-7.667l-0.876,-0.847l-3.046,0l0,8.514l-2.155,0l0,-8.514l-3.952,0l0,8.514l-2.155,0l0,-10.713l11.953,0c-7.663,-7.481 -18.135,-12.097 -29.691,-12.097c-23.483,0 -42.519,19.037 -42.519,42.52c0,23.482 19.036,42.519 42.519,42.519c23.483,0 42.52,-19.037 42.52,-42.519c0,-10.685 -3.95,-20.442 -10.458,-27.911Z" style="fill:#fff;fill-rule:nonzero;"/></g></svg>